<svg width="60" height="60" viewBox="0 0 60 60" fill="none" xmlns="http://www.w3.org/2000/svg">
<path d="M37.8592 38.0334C40.1127 38.7994 42.3662 39.8717 44.507 41.2504C46.5352 42.629 48.4507 44.1609 50.2535 46.1523C52.0563 47.9906 53.7465 50.1352 55.2113 52.433C56.7887 54.7308 58.0282 57.1818 59.1549 59.9392H50.7042C49.4648 57.7946 48 55.9563 46.4225 54.2713C44.8451 52.5862 43.1549 51.2075 41.3521 49.982C39.5493 48.7565 37.6338 47.8374 35.7183 47.2247C33.6901 46.6119 31.662 46.1523 29.5211 46.1523C27.3803 46.1523 25.3521 46.4587 23.2113 47.2247C21.2958 47.8374 19.3803 48.7565 17.5775 49.982C15.7746 51.2075 14.1972 52.5862 12.6197 54.2713C11.0423 55.9563 9.57746 57.7946 8.33803 59.9392H0C2.25352 54.4244 5.29577 49.6756 9.01408 45.9992C12.7324 42.3227 16.9014 39.5653 21.4084 38.0334C19.493 37.4207 17.5775 36.5016 15.7746 35.4293C13.9718 34.3569 12.2817 32.9783 10.7042 31.4464C9.12676 29.9145 7.5493 28.2295 6.19718 26.3912C4.84507 24.553 3.60563 22.4084 2.47887 20.2637C3.04225 19.0382 3.60563 17.9659 4.39437 16.8936C5.07042 15.8213 5.74648 14.749 6.53521 13.8299C7.21127 12.7576 8 11.6853 8.90141 10.7661C9.69014 9.84703 10.5915 8.9279 11.3803 8.16197C11.3803 7.24285 11.6056 6.32372 11.9437 5.55779C12.2817 4.79185 12.7324 4.02592 13.1831 3.41317C13.6338 2.80043 14.1972 2.18768 14.8732 1.8813C15.5493 1.57493 16.2254 1.42174 16.9014 1.26855C17.6901 1.26855 18.3662 1.42174 19.1549 1.8813C19.831 2.34087 20.3944 2.80042 20.9577 3.56636C21.5211 4.17911 21.8592 5.09823 22.1972 6.01735C22.6479 6.93648 22.8732 8.00879 22.8732 9.08109C22.8732 10.1534 22.7606 11.2257 22.4225 12.1448C22.1972 13.064 21.7465 13.8299 21.2958 14.5958C20.7324 15.2086 20.169 15.8213 19.493 16.2809C18.8169 16.5873 18.0282 16.8936 17.2394 16.8936H16.6761C16.4507 16.8936 16.338 16.8936 16.1127 16.7404C15.8873 16.7404 15.7746 16.5873 15.5493 16.4341C15.3239 16.2809 15.0986 16.2809 14.9859 16.1277C14.6479 16.4341 14.4225 16.7404 14.0845 17.2C13.7465 17.5064 13.5211 17.8128 13.1831 18.2723C12.8451 18.5787 12.6197 18.8851 12.2817 19.3446C11.9437 19.651 11.7183 20.1106 11.493 20.4169C12.6197 21.9488 13.9718 23.3275 15.3239 24.553C16.6761 25.9317 18.1408 27.004 19.7183 27.7699C21.2958 28.689 22.8732 29.3018 24.5634 29.7613C26.2535 30.2209 28.0563 30.5273 29.7465 30.5273C31.5493 30.5273 33.2394 30.2209 34.9296 29.7613C36.6197 29.3018 38.1972 28.5358 39.7746 27.7699C41.3521 26.8508 42.8169 25.7785 44.169 24.553C45.5211 23.1743 46.7606 21.7956 48 20.4169H48.1127V19.0382C48.1127 17.9659 48.2253 16.8936 48.5634 15.9745C48.7887 15.0554 49.2394 14.1363 49.8028 13.3703C50.3662 12.6044 51.0423 11.9916 51.7183 11.6853C53.1831 10.9193 54.7606 10.9193 56.2253 11.6853C56.9014 11.9916 57.5775 12.6044 58.2535 13.3703C58.8169 14.1363 59.1549 15.0554 59.493 15.9745C60.169 17.9659 60.169 20.1106 59.493 22.102C59.1549 23.0211 58.8169 23.9402 58.2535 24.7062C57.6901 25.4721 57.1268 26.0848 56.338 26.3912C55.662 26.8508 54.8732 27.004 54.0845 27.004H53.4084C53.2958 27.004 53.1831 27.004 53.0704 26.8508C52.9577 26.8508 52.8451 26.6976 52.7324 26.6976C51.7183 28.0763 50.7042 29.3018 49.5775 30.3741C48.4507 31.5996 47.2113 32.6719 45.9718 33.591C44.7324 34.6633 43.3803 35.4293 42.0282 36.1952C40.6761 36.9611 39.3239 37.5739 37.8592 38.0334Z" fill="black"/>
<path d="M26.0282 10.1535V8.77481C26.0282 8.16206 25.9155 7.39613 25.9155 6.78338C25.9155 6.17063 25.8028 5.40469 25.5775 4.79194C25.4648 4.1792 25.2394 3.56645 24.9014 2.9537C24.676 2.34096 24.338 1.88139 24.1127 1.26864C24.5634 1.11546 25.0141 1.11546 25.4648 0.962269C25.9155 0.962269 26.4789 0.809084 26.9296 0.809084C27.3803 0.809084 27.9437 0.6559 28.3944 0.6559C28.8451 0.349526 29.2958 0.196338 29.7465 0.349525C31.4366 0.349525 33.2394 0.502708 34.9296 0.962269C36.6197 1.26864 38.3099 1.88139 39.8873 2.64733C41.4648 3.26008 43.0422 4.1792 44.507 5.25151C45.9718 6.32382 47.4366 7.39613 48.7887 8.77481C48.338 9.23437 47.8873 9.69393 47.4366 10.3067C46.9859 10.9194 46.6479 11.5322 46.4225 12.1449C46.1972 12.7577 45.8591 13.5236 45.6338 14.2895C45.4084 15.0555 45.1831 15.8214 45.1831 16.5873C44.169 15.515 43.0422 14.4427 41.8028 13.5236C40.5634 12.7577 39.3239 11.9917 38.0845 11.379C36.7324 10.7662 35.4929 10.3067 34.1408 10.0003C32.7887 9.69393 31.3239 9.54074 29.8591 9.54074H27.831C27.493 9.54074 27.2676 9.54074 26.9296 9.69393C26.5915 9.84712 26.2535 10.0003 26.0282 10.1535Z" fill="#2777C6"/>
<path d="M24.338 20.7234C24.338 19.6511 24.4507 18.5788 24.7887 17.6596C25.1267 16.7405 25.5774 15.9746 26.0282 15.3618C26.5915 14.5959 27.1549 14.1363 27.831 13.6768C28.507 13.2172 29.2958 13.064 30.0845 13.064C30.8732 13.064 31.662 13.2172 32.338 13.6768C33.0141 14.1363 33.5774 14.5959 34.1408 15.3618C34.5915 16.1278 35.0422 16.8937 35.3803 17.8128C35.9436 19.8043 35.9436 21.7957 35.3803 23.7871C35.1549 24.7062 34.7042 25.6254 34.1408 26.2381C33.5774 27.004 33.0141 27.6168 32.2253 27.9232C31.5493 28.3827 30.7605 28.5359 29.9718 28.5359C29.1831 28.5359 28.3944 28.3827 27.7183 27.9232C27.0422 27.4636 26.4789 27.004 25.9155 26.2381C25.3521 25.4722 25.0141 24.7062 24.676 23.7871C24.4507 22.868 24.338 21.7957 24.338 20.7234Z" fill="black"/>
</svg>
