<svg width="30" height="30" viewBox="0 0 30 30" fill="none" xmlns="http://www.w3.org/2000/svg">
<path fill-rule="evenodd" clip-rule="evenodd" d="M30 5.70313C30 4.19001 29.3993 2.73896 28.3295 1.67052C27.2596 0.600633 25.81 0 24.2968 0H5.70316C4.19001 0 2.73896 0.600633 1.67052 1.67052C0.600638 2.73896 0 4.19001 0 5.70313V24.2969C0 25.81 0.600638 27.2596 1.67052 28.3295C2.73896 29.3994 4.19001 30 5.70316 30H24.2968C25.81 30 27.2596 29.3994 28.3295 28.3295C29.3993 27.2596 30 25.81 30 24.2969V5.70313ZM24.4528 14.9408L18.7828 9.30555L13.1143 14.974L16.8684 18.728L13.0479 22.5397L14.9509 24.4427L20.6526 18.741L16.8698 14.9581L18.7583 13.0696L22.5412 16.851L24.4528 14.9408ZM18.3541 8.87668L15.0318 5.55444L5.54722 15.039L12.6191 22.1109L14.5336 20.1978L9.33004 14.9957L15.0159 9.30987L16.4684 10.7623L18.3541 8.87668Z" fill="#5800FF"/>
<rect width="3.35634" height="13.4135" transform="matrix(0.707121 0.707093 -0.707515 0.706698 15.0312 5.55176)" fill="white"/>
<rect width="6.69188" height="2.70402" transform="matrix(0.707121 0.707093 -0.707515 0.706698 9.80078 15.4644)" fill="white"/>
<rect width="2.68588" height="8.06261" transform="matrix(0.707121 0.707093 -0.707515 0.706698 18.7539 16.8413)" fill="white"/>
<rect width="5.33115" height="2.6652" transform="matrix(0.707121 0.707093 -0.707515 0.706698 15.002 13.0913)" fill="white"/>
<rect width="2.64374" height="5.40194" transform="matrix(0.707121 0.707093 -0.707515 0.706698 18.793 9.29541)" fill="white"/>
<rect width="5.34939" height="2.6919" transform="matrix(0.707121 0.707093 -0.707515 0.706698 20.6621 11.1665)" fill="white"/>
<rect width="1.37631" height="2.66249" transform="matrix(0.707121 0.707093 -0.707515 0.706698 17.3789 7.90576)" fill="white"/>
</svg>
